HIERARCHY
ROOT Hips
{
	OFFSET 0.000000 0.000000 0.000000
	CHANNELS 6 Xposition Yposition Zposition Xrotation Yrotation Zrotation
	JOINT LeftUpLeg_virtual
	{
		OFFSET 0.000000 0.000000 0.000000
		CHANNELS 3 Xrotation Yrotation Zrotation
		JOINT LeftUpLeg
		{
			OFFSET 11.394100 -6.187798 -0.413800
			CHANNELS 3 Xrotation Yrotation Zrotation
			JOINT LeftLeg
			{
				OFFSET 0.430247 -32.302673 3.732800
				CHANNELS 3 Xrotation Yrotation Zrotation
				JOINT LeftFoot
				{
					OFFSET -0.430247 -48.264931 -6.423300
					CHANNELS 3 Xrotation Yrotation Zrotation
					JOINT LeftToeBase
					{
						OFFSET 4.230900 -16.068199 23.438400
						CHANNELS 3 Xrotation Yrotation Zrotation
						JOINT LeftToe_End
						{
							OFFSET 4.510700 0.695400 19.974600
							CHANNELS 3 Xrotation Yrotation Zrotation
							End Site
							{
								OFFSET 0 0 0
							}
						}
					}
				}
			}
		}
	}
	JOINT RightUpLeg_virtual
	{
		OFFSET 0.000000 0.000000 0.000000
		CHANNELS 3 Xrotation Yrotation Zrotation
		JOINT RightUpLeg
		{
			OFFSET -11.333700 -6.187798 -0.413800
			CHANNELS 3 Xrotation Yrotation Zrotation
			JOINT RightLeg
			{
				OFFSET -0.430392 -32.302628 3.733000
				CHANNELS 3 Xrotation Yrotation Zrotation
				JOINT RightFoot
				{
					OFFSET 0.430392 -48.264973 -6.423500
					CHANNELS 3 Xrotation Yrotation Zrotation
					JOINT RightToeBase
					{
						OFFSET -4.230900 -16.068199 23.438400
						CHANNELS 3 Xrotation Yrotation Zrotation
						JOINT RightToe_End
						{
							OFFSET -4.510700 0.695400 19.974600
							CHANNELS 3 Xrotation Yrotation Zrotation
							End Site
							{
								OFFSET 0 0 0
							}
						}
					}
				}
			}
		}
	}
	JOINT Spine_virtual
	{
		OFFSET 0.000000 0.000000 0.000000
		CHANNELS 3 Xrotation Yrotation Zrotation
		JOINT Spine
		{
			OFFSET -0.002400 12.777504 0.315300
			CHANNELS 3 Xrotation Yrotation Zrotation
			JOINT Spine1
			{
				OFFSET -0.002067 5.816869 0.032633
				CHANNELS 3 Xrotation Yrotation Zrotation
				JOINT Spine1_split
				{
					OFFSET -0.002067 5.816869 0.032633
					CHANNELS 3 Xrotation Yrotation Zrotation
					JOINT Spine2
					{
						OFFSET -0.002067 5.816869 0.032633
						CHANNELS 3 Xrotation Yrotation Zrotation
						JOINT Neck_virtual
						{
							OFFSET 0.000000 0.000000 0.000000
							CHANNELS 3 Xrotation Yrotation Zrotation
							JOINT Neck
							{
								OFFSET -0.003700 21.199493 -0.826900
								CHANNELS 3 Xrotation Yrotation Zrotation
								JOINT Head
								{
									OFFSET 0.000000 20.442200 4.834800
									CHANNELS 3 Xrotation Yrotation Zrotation
									JOINT HeadTop_End
									{
										OFFSET 0.000000 34.668396 4.968400
										CHANNELS 3 Xrotation Yrotation Zrotation
										End Site
										{
											OFFSET 0 0 0
										}
									}
								}
							}
						}
						JOINT LeftShoulder_virtual
						{
							OFFSET 0.000000 0.000000 0.000000
							CHANNELS 3 Xrotation Yrotation Zrotation
							JOINT LeftShoulder
							{
								OFFSET 3.288150 8.794197 -1.372250
								CHANNELS 3 Xrotation Yrotation Zrotation
								JOINT LeftShoulder_split
								{
									OFFSET 3.288150 8.794197 -1.372250
									CHANNELS 3 Xrotation Yrotation Zrotation
									JOINT LeftArm
									{
										OFFSET 11.953299 -2.279007 -0.146200
										CHANNELS 3 Xrotation Yrotation Zrotation
										JOINT LeftForeArm
										{
											OFFSET 18.448900 0.000000 0.000000
											CHANNELS 3 Xrotation Yrotation Zrotation
											JOINT LeftHand
											{
												OFFSET 29.527798 0.000000 0.000000
												CHANNELS 3 Xrotation Yrotation Zrotation
												End Site
												{
													OFFSET 0 0 0
												}
											}
										}
									}
								}
							}
						}
						JOINT RightShoulder_virtual
						{
							OFFSET 0.000000 0.000000 0.000000
							CHANNELS 3 Xrotation Yrotation Zrotation
							JOINT RightShoulder
							{
								OFFSET -3.249400 8.794197 -1.372250
								CHANNELS 3 Xrotation Yrotation Zrotation
								JOINT RightShoulder_split
								{
									OFFSET -3.249400 8.794197 -1.372250
									CHANNELS 3 Xrotation Yrotation Zrotation
									JOINT RightArm
									{
										OFFSET -11.953299 -2.279007 -0.146200
										CHANNELS 3 Xrotation Yrotation Zrotation
										JOINT RightForeArm
										{
											OFFSET -18.448900 0.000000 0.000000
											CHANNELS 3 Xrotation Yrotation Zrotation
											JOINT RightHand
											{
												OFFSET -29.527802 0.000000 0.000000
												CHANNELS 3 Xrotation Yrotation Zrotation
												End Site
												{
													OFFSET 0 0 0
												}
											}
										}
									}
								}
							}
						}
					}
				}
			}
		}
	}
}
MOTION
Frames: 9
Frame Time: 0.03333333
12.069172 150.859406 -15.799774 0.000000 0.000000 0.000000 -89.593190 -6.382607 -1.280448 3.992218 28.898428 7.947943 1.181463 -18.521528 -6.596759 20.113145 32.389249 -11.645194 10.945835 -0.415156 8.155893 0.000000 0.000000 0.000000 -87.667548 -2.650101 1.888319 -2.014644 -13.266177 -8.114949 1.253936 11.874385 -12.276806 23.250223 -28.198656 21.658738 5.929639 -4.888094 -44.944485 0.000000 0.000000 0.000000 -91.093953 2.030334 5.132442 8.603258 -1.239283 -3.525579 11.494631 1.041730 -0.039788 0.060951 0.332121 -0.084289 0.000000 0.000000 0.000000 11.088197 3.202558 -0.475412 -15.974914 -7.025703 -3.322685 8.238630 -51.258777 25.653485 0.000000 0.000000 0.000000 10.064510 2.312199 -1.860347 3.567075 11.002227 -0.748099 7.732785 -6.245158 -1.434227 21.376366 -44.483571 -24.150345 -5.970261 -53.906366 -6.852668 0.000000 0.000000 0.000000 12.416610 2.142422 -1.327686 -1.944132 -0.059979 15.857024 12.430784 6.456223 7.138900 -25.426149 37.095174 70.284539 168.451507 73.399569 -176.946637 0.000000 0.000000 0.000000 
11.943697 150.833069 -15.756149 0.000000 0.000000 0.000000 -89.813231 -6.679405 -1.551743 3.862649 28.968509 8.092997 1.616969 -18.266829 -6.348943 20.588564 32.320042 -12.083626 10.778709 -0.396937 8.260876 0.000000 0.000000 0.000000 -87.750015 -2.664282 1.827253 -1.701061 -13.284103 -7.709440 0.688744 11.453709 -12.361501 22.950462 -28.465121 21.057799 5.085835 -4.467026 -45.021103 0.000000 0.000000 0.000000 -91.327484 1.785982 4.972061 8.484998 -1.434914 -3.515118 11.058256 0.887359 0.131489 0.039073 0.345189 -0.090953 0.000000 0.000000 0.000000 10.618917 3.057168 -0.330813 -15.228998 -6.802580 -3.424560 8.876469 -51.052785 26.791217 0.000000 0.000000 0.000000 9.711311 2.133949 -1.819664 3.669967 11.114529 -1.512947 7.487737 -6.303183 -1.419715 23.043195 -44.225683 -23.646472 -7.080377 -54.235957 -7.313185 0.000000 0.000000 0.000000 12.210738 2.101043 -1.140341 -1.990855 -0.328394 15.697612 12.731152 7.264051 6.770925 -25.182283 37.144051 70.146985 169.269778 74.751790 -177.446566 0.000000 0.000000 0.000000 
11.844804 150.791794 -15.691013 0.000000 0.000000 0.000000 -89.873091 -6.811263 -1.832086 3.266582 29.109235 8.445468 2.082566 -18.097541 -6.109061 21.577128 32.033270 -12.742643 10.688366 -0.376761 8.348880 0.000000 0.000000 0.000000 -87.688591 -2.581093 1.682245 -1.926069 -13.197995 -7.499908 0.319351 11.094415 -12.330476 23.840654 -28.480745 21.017322 4.480947 -4.151384 -44.941501 0.000000 0.000000 0.000000 -91.309200 1.778035 4.859642 8.321567 -1.714496 -3.459252 10.500437 0.689356 0.347616 0.026126 0.377298 -0.106224 0.000000 0.000000 0.000000 10.014399 2.888808 -0.176257 -14.583040 -6.688640 -3.233767 9.252481 -50.840882 27.662987 0.000000 0.000000 0.000000 9.259805 1.906883 -1.676475 3.731234 10.934409 -2.116362 7.141880 -6.263142 -1.483157 24.659143 -43.631330 -23.828962 -7.874634 -54.722205 -7.563927 0.000000 0.000000 0.000000 11.856502 2.007510 -0.940683 -2.008817 -0.663116 15.453253 12.997482 7.905118 6.503129 -24.546733 37.333988 69.637228 170.281110 75.785764 -178.125419 0.000000 0.000000 0.000000 
11.765009 150.754486 -15.609543 0.000000 0.000000 0.000000 -89.784387 -6.804310 -2.122191 2.375534 29.287482 8.902215 2.453834 -17.996831 -5.897431 22.735014 31.579769 -13.388199 10.633217 -0.364625 8.425309 0.000000 0.000000 0.000000 -87.517154 -2.430265 1.500937 -2.511749 -13.027991 -7.414799 0.098669 10.832130 -12.218856 25.415803 -28.363365 21.282682 4.184034 -3.982705 -44.699326 0.000000 0.000000 0.000000 -91.091959 1.910427 4.710025 8.104482 -2.025953 -3.373078 9.843155 0.465743 0.593922 0.022642 0.421245 -0.129559 0.000000 0.000000 0.000000 9.292072 2.702599 -0.008871 -14.077548 -6.674858 -2.897825 9.296410 -50.651406 28.165219 0.000000 0.000000 0.000000 8.703851 1.654701 -1.451997 3.742565 10.505786 -2.578126 6.654490 -6.122606 -1.747791 26.065875 -42.738140 -24.821934 -8.207532 -55.220324 -7.491404 0.000000 0.000000 0.000000 11.360803 1.874076 -0.741825 -2.007797 -1.062937 15.119993 13.250322 8.335077 6.307715 -23.634268 37.676966 68.614100 171.097741 76.222302 -178.571730 0.000000 0.000000 0.000000 
11.713940 150.697357 -15.499352 0.000000 0.000000 0.000000 -89.641342 -6.742177 -2.393547 1.461611 29.394122 9.317895 2.593229 -17.959643 -5.731356 23.686787 31.056255 -13.807832 10.563372 -0.376183 8.504188 0.000000 0.000000 0.000000 -87.304810 -2.351941 1.242468 -3.289552 -12.842872 -7.378785 0.099716 10.517442 -12.091381 27.110068 -28.354253 21.463798 4.306637 -4.011741 -44.351137 0.000000 0.000000 0.000000 -90.776267 2.085575 4.532200 7.836388 -2.321860 -3.300451 9.118300 0.211237 0.853857 0.038223 0.474389 -0.145924 0.000000 0.000000 0.000000 8.499376 2.496253 0.180920 -13.722703 -6.748462 -2.594199 9.130725 -50.568518 28.313793 0.000000 0.000000 0.000000 8.062471 1.388420 -1.186628 3.709991 9.883549 -2.941891 5.988817 -5.804570 -2.199303 27.186637 -41.575908 -26.580397 -8.036090 -55.670567 -7.036653 0.000000 0.000000 0.000000 10.759185 1.703285 -0.550970 -1.993424 -1.483913 14.785999 13.466055 8.376612 6.041618 -22.514064 38.078236 67.175887 171.304969 76.132649 -178.357481 0.000000 0.000000 0.000000 
11.671849 150.652817 -15.385357 0.000000 0.000000 0.000000 -89.492157 -6.675993 -2.605447 0.767280 29.351222 9.592535 2.506594 -17.985338 -5.628601 24.248018 30.584180 -13.963795 10.497920 -0.409222 8.598563 0.000000 0.000000 0.000000 -87.180521 -2.444656 0.893475 -4.069422 -12.711325 -7.361360 0.342627 10.096170 -12.013892 28.462390 -28.564225 21.375296 4.829102 -4.180679 -44.001742 0.000000 0.000000 0.000000 -90.471764 2.165065 4.317094 7.502919 -2.569766 -3.265280 8.368922 -0.083366 1.100795 0.058272 0.512958 -0.166794 0.000000 0.000000 0.000000 7.673870 2.266591 0.384491 -13.522394 -6.881916 -2.442905 8.868363 -50.568723 28.153574 0.000000 0.000000 0.000000 7.386684 1.103536 -0.925174 3.636574 9.142869 -3.225254 5.174891 -5.341024 -2.723386 28.018104 -40.201995 -28.860179 -7.487025 -56.131618 -6.300566 0.000000 0.000000 0.000000 10.119988 1.505933 -0.373315 -1.983231 -1.843568 14.510103 13.626369 8.119490 5.836001 -21.152121 38.448433 65.354740 170.724062 75.944149 -177.323718 0.000000 0.000000 0.000000 
11.623746 150.615448 -15.255127 0.000000 0.000000 0.000000 -89.376488 -6.666675 -2.733185 0.441774 29.150267 9.674263 2.284523 -18.029830 -5.586311 24.369594 30.286275 -13.868433 10.476165 -0.455598 8.691027 0.000000 0.000000 0.000000 -87.105457 -2.642687 0.618742 -4.631365 -12.608673 -7.326444 0.555956 9.678081 -12.015333 29.168606 -28.903288 21.085748 5.091356 -4.207073 -43.887913 0.000000 0.000000 0.000000 -90.276693 2.101920 4.105971 7.088753 -2.753332 -3.275070 7.652999 -0.422540 1.308147 0.088529 0.523917 -0.181891 0.000000 0.000000 0.000000 6.862948 2.003536 0.579389 -13.446645 -7.037198 -2.518812 8.679934 -50.640979 27.781909 0.000000 0.000000 0.000000 6.721303 0.798988 -0.709779 3.535046 8.368095 -3.476161 4.354660 -4.734377 -3.234066 28.726871 -38.664779 -31.294561 -6.716232 -56.640150 -5.423995 0.000000 0.000000 0.000000 9.492916 1.285951 -0.222199 -1.988016 -2.037339 14.368500 13.883487 7.858123 5.715102 -19.543886 38.707720 63.336351 169.442732 75.976176 -175.599437 0.000000 0.000000 0.000000 
11.569766 150.584381 -15.163460 0.000000 0.000000 0.000000 -89.307647 -6.755668 -2.790318 0.513240 28.834760 9.585410 2.001754 -18.022468 -5.597112 24.084789 30.251509 -13.557261 10.501932 -0.500322 8.761303 0.000000 0.000000 0.000000 -87.077774 -2.932755 0.428198 -4.876118 -12.514231 -7.270520 0.621998 9.399708 -12.093842 29.289702 -29.167899 20.802892 4.691372 -3.930194 -44.114635 0.000000 0.000000 0.000000 -90.242133 1.896669 3.934567 6.602080 -2.871811 -3.303240 7.002934 -0.808946 1.459625 0.104526 0.526173 -0.183459 0.000000 0.000000 0.000000 6.097298 1.697335 0.745309 -13.478174 -7.222612 -2.823353 8.825248 -50.781917 27.321158 0.000000 0.000000 0.000000 6.098727 0.467873 -0.570166 3.408390 7.590419 -3.714362 3.635178 -4.169492 -3.532086 29.437610 -36.985215 -33.571442 -5.960542 -57.301804 -4.622564 0.000000 0.000000 0.000000 8.931199 1.048018 -0.107218 -2.008309 -2.008965 14.412273 13.996181 7.668182 5.531831 -17.637929 38.781333 61.279426 167.622527 76.368960 -173.383956 0.000000 0.000000 0.000000 
11.496744 150.576935 -15.101753 0.000000 0.000000 0.000000 -89.291370 -6.950936 -2.817732 0.919145 28.534140 9.407250 1.725780 -17.897490 -5.642858 23.464606 30.480908 -13.098179 10.531287 -0.530883 8.814443 0.000000 0.000000 0.000000 -87.058582 -3.233593 0.370548 -4.860198 -12.424229 -7.240350 0.582278 9.447552 -12.204495 29.212077 -29.129435 20.709292 4.087499 -3.522347 -44.498372 0.000000 0.000000 0.000000 -90.345446 1.596261 3.782814 6.059334 -2.926253 -3.287666 6.435111 -1.223206 1.550587 0.110280 0.536935 -0.185867 0.000000 0.000000 0.000000 5.388361 1.351642 0.856977 -13.583824 -7.449961 -3.302430 9.376366 -50.962862 26.839650 0.000000 0.000000 0.000000 5.522036 0.120944 -0.519610 3.258667 6.831487 -3.973068 2.995061 -3.667204 -3.594592 30.312502 -35.191201 -35.491948 -5.411276 -58.153535 -4.096695 0.000000 0.000000 0.000000 8.449263 0.804276 -0.029593 -2.053614 -1.722049 14.659019 13.716058 7.571769 5.342022 -15.369135 38.656091 59.171698 165.509540 77.003170 -170.944103 0.000000 0.000000 0.000000 
